<svg width="485" height="62" viewBox="0 0 485 62" fill="none" xmlns="http://www.w3.org/2000/svg">
<path d="M31.9014 0C36.9895 0 41.598 0.903491 45.709 2.71973C49.82 4.53597 53.2739 7.13681 56.0791 10.5391L47.3516 18.6992C43.3755 14.0522 38.456 11.7325 32.5762 11.7324C28.9371 11.7324 25.6936 12.5428 22.8379 14.1543C19.9821 15.7659 17.7582 18.0176 16.166 20.9082C14.5739 23.7987 13.7735 27.0812 13.7734 30.7646C13.7734 34.4483 14.5739 37.7314 16.166 40.6221C17.7582 43.5126 19.9822 45.7644 22.8379 47.376C25.6935 48.9874 28.9372 49.7969 32.5762 49.7969C38.456 49.7968 43.3755 47.4434 47.3516 42.7451L56.0791 50.9053C53.2823 54.3587 49.8117 56.9943 45.667 58.8105C41.5223 60.6183 36.9055 61.5303 31.8174 61.5303C25.828 61.5302 20.4115 60.2168 15.5762 57.582L15.5674 57.5654C10.7235 54.9306 6.92387 51.2812 4.15234 46.6084C1.38087 41.9272 5.80443e-05 36.6488 0 30.7568C0 24.8647 1.38081 19.5859 4.15234 14.9131C6.92387 10.2403 10.7319 6.58235 15.5674 3.95605C20.4111 1.31277 25.853 6.77297e-05 31.9014 0ZM147.985 61.5215H142.526L167.513 1.02246H172.972L147.985 61.5215ZM201.2 33.8174C201.2 44.4674 205.564 49.7879 214.291 49.7881C218.545 49.7881 221.788 48.5008 224.029 45.9258C226.27 43.3506 227.391 39.3087 227.391 33.8174V1.02246H240.819V34.3291C240.819 43.052 238.486 49.7629 233.811 54.4697C229.135 59.1681 222.606 61.5215 214.207 61.5215C205.808 61.5215 199.28 59.168 194.604 54.4697L194.612 54.4609C189.937 49.7626 187.604 43.0431 187.604 34.3203V1.02246H201.2V33.8174ZM100.811 0.0166016C106.909 0.0166419 112.394 1.34744 117.263 4.00781C122.132 6.66818 125.965 10.3342 128.762 15.0068C131.558 19.6795 132.957 24.9324 132.957 30.7646C132.957 36.5969 131.558 41.8498 128.762 46.5225C125.965 51.1952 122.132 54.8621 117.263 57.5225C112.394 60.1828 106.909 61.5127 100.811 61.5127C94.7115 61.5127 89.2098 60.1829 84.3154 57.5225C79.4212 54.8621 75.5888 51.1951 72.8174 46.5225C70.0459 41.8497 68.6641 36.5971 68.6641 30.7646C68.6641 24.9324 70.0459 19.6795 72.8174 15.0068C75.5888 10.3344 79.4214 6.66811 84.3154 4.00781C89.2098 1.3474 94.7115 0.0166016 100.811 0.0166016ZM303.114 37.1348V1.02246H316.543V60.498H305.381L276.082 24.3867V60.498H262.653V1.02246H273.899L303.114 37.1348ZM352.465 60.498H338.868V1.02246H352.465V60.498ZM419.369 12.2363H400.566V60.498H386.97V12.2363H368.167V1.02246H419.369V12.2363ZM455.962 27.4482L471.656 1.02246H485L462.171 39.4287H462.18V60.498H448.583V39.2578L425.829 1.02246H440.269L455.962 27.4482ZM100.811 11.7246C97.34 11.7246 94.2059 12.5341 91.4092 14.1455C88.6124 15.7571 86.4134 18.0088 84.8213 20.8994C83.2292 23.79 82.4287 27.0732 82.4287 30.7568C82.4288 34.4402 83.2293 37.7228 84.8213 40.6133C86.4134 43.5039 88.6124 45.7556 91.4092 47.3672C94.2059 48.9787 97.3399 49.7891 100.811 49.7891C104.281 49.789 107.415 48.9787 110.212 47.3672C113.009 45.7556 115.207 43.5039 116.799 40.6133C118.391 37.7228 119.191 34.4403 119.191 30.7568C119.191 27.0732 118.391 23.7901 116.799 20.8994C115.207 18.0088 113.009 15.7571 110.212 14.1455C107.415 12.534 104.281 11.7247 100.811 11.7246Z" fill="black"/>
</svg>
