<svg width="64" height="64" viewBox="0 0 64 64" fill="none" xmlns="http://www.w3.org/2000/svg">
<rect width="64" height="64" fill="white"/>
<path d="M14.4844 21.9873C16.162 21.9873 17.6816 22.2859 19.0371 22.8848C20.3925 23.4836 21.5312 24.3412 22.4561 25.4629L19.5781 28.1533C18.2671 26.6211 16.6448 25.8564 14.7061 25.8564C13.5062 25.8565 12.4367 26.123 11.4951 26.6543C10.5535 27.1857 9.81991 27.9287 9.29492 28.8818C8.77008 29.8349 8.50684 30.9174 8.50684 32.1318C8.50684 33.3463 8.77006 34.4288 9.29492 35.3818C9.81985 36.3349 10.5536 37.077 11.4951 37.6084C12.4367 38.1398 13.5062 38.4072 14.7061 38.4072C16.6449 38.4072 18.2671 37.6312 19.5781 36.082L22.4561 38.7725C21.5338 39.9112 20.3891 40.78 19.0225 41.3789C17.6559 41.9749 16.1337 42.2764 14.4561 42.2764C12.4812 42.2763 10.6949 41.8434 9.10059 40.9746L9.09766 40.9688C7.50063 40.1 6.24779 38.8961 5.33398 37.3555C4.42026 35.812 3.96484 34.0716 3.96484 32.1289C3.96485 30.1862 4.42027 28.4459 5.33398 26.9053C6.24779 25.3646 7.5034 24.158 9.09766 23.292C10.6949 22.4204 12.49 21.9873 14.4844 21.9873ZM52.7617 42.2734H50.9619L59.2002 22.3242H61L52.7617 42.2734ZM37.2061 21.9932C39.217 21.9932 41.0254 22.4314 42.6309 23.3086C44.2362 24.1858 45.4997 25.395 46.4219 26.9355C47.3441 28.4763 47.8057 30.2087 47.8057 32.1318C47.8056 34.0549 47.344 35.7865 46.4219 37.3271C45.4997 38.8678 44.2362 40.0769 42.6309 40.9541C41.0254 41.8313 39.217 42.2705 37.2061 42.2705C35.195 42.2705 33.3805 41.8313 31.7666 40.9541C30.153 40.0769 28.8894 38.8678 27.9756 37.3271C27.0618 35.7865 26.6055 34.0548 26.6055 32.1318C26.6055 30.2087 27.0617 28.4763 27.9756 26.9355C28.8894 25.395 30.1529 24.1858 31.7666 23.3086C33.3805 22.4314 35.195 21.9932 37.2061 21.9932ZM37.2061 25.8535C36.0616 25.8535 35.0277 26.12 34.1055 26.6514C33.1833 27.1828 32.4586 27.9258 31.9336 28.8789C31.4087 29.832 31.1445 30.9144 31.1445 32.1289C31.1445 33.3434 31.4087 34.4258 31.9336 35.3789C32.4585 36.3319 33.1835 37.0741 34.1055 37.6055C35.0277 38.1369 36.0616 38.4043 37.2061 38.4043C38.3504 38.4042 39.3835 38.1368 40.3057 37.6055C41.2278 37.0741 41.9526 36.332 42.4775 35.3789C43.0025 34.4258 43.2666 33.3435 43.2666 32.1289C43.2666 30.9143 43.0025 29.832 42.4775 28.8789C41.9525 27.9258 41.2279 27.1828 40.3057 26.6514C39.3836 26.1201 38.3503 25.8536 37.2061 25.8535Z" fill="black"/>
</svg>
