<svg width="589" height="75" viewBox="0 0 589 75" fill="none" xmlns="http://www.w3.org/2000/svg">
<path d="M38.7012 0C44.8735 2.51641e-05 50.4633 1.09661 55.4502 3.2998C60.4371 5.50305 64.6273 8.65799 68.0303 12.7852L57.4434 22.6846C52.6198 17.0471 46.6516 14.2334 39.5186 14.2334C35.1039 14.2334 31.1694 15.216 27.7051 17.1709C24.2407 19.1259 21.5428 21.8576 19.6113 25.3643C17.68 28.8708 16.709 32.8529 16.709 37.3213C16.709 41.7899 17.6799 45.7727 19.6113 49.2793C21.5428 52.7859 24.2407 55.5166 27.7051 57.4717C31.1694 59.4267 35.1038 60.4102 39.5186 60.4102C46.6516 60.4101 52.6199 57.555 57.4434 51.8555L68.0303 61.7549C64.6375 65.9441 60.4272 69.1405 55.3994 71.3438C50.3715 73.5367 44.7711 74.6436 38.5986 74.6436C31.3327 74.6435 24.7614 73.0498 18.8955 69.8535L18.8857 69.833C13.0096 66.6367 8.40026 62.2096 5.03809 56.541C1.67601 50.8622 3.16046e-05 44.4592 0 37.3115C0 30.1637 1.67592 23.7604 5.03809 18.0918C8.40026 12.4232 13.0198 7.98579 18.8857 4.7998C24.7619 1.59315 31.3637 0 38.7012 0ZM179.521 74.6328H172.899L203.21 1.24121H209.832L179.521 74.6328ZM244.078 41.0244C244.078 53.9441 249.372 60.3993 259.959 60.3994C265.12 60.3994 269.055 58.8368 271.773 55.7129C274.492 52.5889 275.851 47.6858 275.851 41.0244V1.24121H292.141V41.6455C292.141 52.2273 289.309 60.3682 283.638 66.0781C277.966 71.7776 270.046 74.6328 259.857 74.6328C249.669 74.6328 241.749 71.7775 236.077 66.0781L236.087 66.0674C230.415 60.3678 227.584 52.2167 227.584 41.6348V1.24121H244.078V41.0244ZM122.294 0.0205078C129.693 0.020521 136.345 1.63411 142.252 4.86133C148.159 8.08866 152.809 12.5366 156.202 18.2051C159.595 23.8736 161.291 30.246 161.291 37.3213C161.291 44.3966 159.595 50.769 156.202 56.4375C152.809 62.1061 148.159 66.5539 142.252 69.7812C136.345 73.0085 129.693 74.6221 122.294 74.6221C114.895 74.6221 108.222 73.0086 102.284 69.7812C96.3468 66.5539 91.6971 62.106 88.335 56.4375C84.9728 50.7689 83.2969 44.3967 83.2969 37.3213C83.2969 30.246 84.9728 23.8736 88.335 18.2051C91.6971 12.5367 96.3469 8.08862 102.284 4.86133C108.222 1.63397 114.895 0.0205078 122.294 0.0205078ZM367.712 45.0479V1.24121H384.001V73.3916H370.461L334.918 29.584V73.3916H318.628V1.24121H332.271L367.712 45.0479ZM427.578 73.3916H411.084V1.24121H427.578V73.3916ZM508.739 14.8438H485.93V73.3916H469.436V14.8438H446.626V1.24121H508.739V14.8438ZM553.133 33.2979L572.172 1.24121H588.359L560.665 47.8311H560.675V73.3916H544.181V47.624L516.578 1.24121H534.095L553.133 33.2979ZM122.294 14.2227C118.084 14.2227 114.282 15.2061 110.889 17.1611C107.496 19.1162 104.829 21.847 102.897 25.3535C100.966 28.8601 99.9951 32.8429 99.9951 37.3115C99.9952 41.7799 100.966 45.7621 102.897 49.2686C104.829 52.7752 107.496 55.5069 110.889 57.4619C114.282 59.417 118.084 60.3994 122.294 60.3994C126.504 60.3994 130.306 59.4167 133.698 57.4619C137.091 55.5069 139.759 52.7752 141.69 49.2686C143.622 45.7621 144.593 41.7799 144.593 37.3115C144.593 32.843 143.622 28.8601 141.69 25.3535C139.759 21.8469 137.091 19.1162 133.698 17.1611C130.305 15.2062 126.504 14.2227 122.294 14.2227Z" fill="white"/>
</svg>
