<svg width="246" height="32" viewBox="0 0 246 32" fill="none" xmlns="http://www.w3.org/2000/svg">
<path d="M16.1797 0C18.7601 4.15073e-05 21.0968 0.458799 23.1816 1.37988C25.2665 2.30099 27.0187 3.61929 28.4414 5.34473L24.0146 9.4834C21.9982 7.12685 19.5033 5.95029 16.5215 5.9502C14.6758 5.9502 13.0304 6.36137 11.582 7.17871C10.1338 7.99602 9.0057 9.1376 8.19824 10.6035C7.39076 12.0695 6.98535 13.7353 6.98535 15.6035C6.98542 17.4715 7.39083 19.1366 8.19824 20.6025C9.0057 22.0685 10.1338 23.21 11.582 24.0273C13.0304 24.8447 14.6758 25.2559 16.5215 25.2559C19.5035 25.2558 21.9982 24.0614 24.0146 21.6787L28.4414 25.8174C27.023 27.5688 25.2622 28.905 23.1602 29.8262C21.0582 30.7429 18.7172 31.206 16.1367 31.2061C13.0991 31.2061 10.3517 30.5403 7.89941 29.2041L7.89551 29.1953C5.43888 27.859 3.51207 26.0076 2.10645 23.6377C0.700865 21.2635 0 18.5869 0 15.5986C1.22811e-05 12.6104 0.700838 9.93331 2.10645 7.56348C3.51205 5.19377 5.44326 3.33874 7.89551 2.00684C10.3521 0.666291 13.1122 0 16.1797 0ZM75.0527 31.2021H72.2842L84.9561 0.518555H87.7246L75.0527 31.2021ZM102.041 17.1514C102.041 22.5526 104.255 25.251 108.681 25.251C110.838 25.251 112.483 24.5979 113.619 23.292C114.756 21.986 115.324 19.9363 115.324 17.1514V0.518555H122.135V17.4111C122.135 21.8347 120.951 25.2379 118.58 27.625C116.209 30.0078 112.897 31.2021 108.638 31.2021C104.378 31.2021 101.067 30.0078 98.6963 27.625L98.7002 27.6211C96.329 25.2383 95.1455 21.8303 95.1455 17.4062V0.518555H102.041V17.1514ZM51.127 0.00878906C54.2202 0.00878906 57.0022 0.682965 59.4717 2.03223C61.941 3.38146 63.8843 5.24157 65.3027 7.61133C66.7211 9.98106 67.4306 12.6447 67.4307 15.6025C67.4307 18.5605 66.7212 21.2249 65.3027 23.5947C63.8843 25.9645 61.941 27.8246 59.4717 29.1738C57.0022 30.5231 54.2202 31.1973 51.127 31.1973C48.0339 31.1972 45.2439 30.523 42.7617 29.1738C40.2795 27.8246 38.3353 25.9646 36.9297 23.5947C35.5242 21.2249 34.8242 18.5604 34.8242 15.6025C34.8243 12.6448 35.5242 9.981 36.9297 7.61133C38.3353 5.24147 40.2795 3.38149 42.7617 2.03223C45.2439 0.683012 48.0339 0.00883101 51.127 0.00878906ZM153.729 18.833V0.518555H160.539V30.6826H154.878L140.019 12.3682V30.6826H133.208V0.518555H138.912L153.729 18.833ZM178.758 30.6826H171.861V0.518555H178.758V30.6826ZM212.688 6.20605H203.152V30.6826H196.257V6.20605H186.721V0.518555H212.688V6.20605ZM231.247 13.9209L239.207 0.518555H245.975L234.396 19.9971H234.4V30.6826H227.505V19.9102L215.965 0.518555H223.288L231.247 13.9209ZM51.127 5.94629C49.3668 5.94633 47.7777 6.35751 46.3594 7.1748C44.941 7.99213 43.826 9.13363 43.0186 10.5996C42.2111 12.0656 41.8047 13.7305 41.8047 15.5986C41.8047 17.4668 42.2111 19.1316 43.0186 20.5977C43.826 22.0636 44.941 23.2051 46.3594 24.0225C47.7777 24.8398 49.3668 25.2509 51.127 25.251C52.8872 25.251 54.4771 24.8398 55.8955 24.0225C57.3138 23.2051 58.4289 22.0635 59.2363 20.5977C60.0437 19.1317 60.4492 17.4668 60.4492 15.5986C60.4492 13.7305 60.0438 12.0656 59.2363 10.5996C58.4289 9.1337 57.3138 7.99213 55.8955 7.1748C54.4771 6.35746 52.8872 5.94629 51.127 5.94629Z" fill="white"/>
</svg>
